<?xml version="1.0" encoding="UTF-8"?>
<!DOCTYPE svg PUBLIC "-//W3C//DTD SVG 1.1//EN" "http://www.w3.org/Graphics/SVG/1.1/DTD/svg11.dtd">
<!-- Creator: CorelDRAW 2018 (64-Bit Evaluation Version) -->
<?xml-stylesheet href="dongho.css" type="text/css"?>
<svg xmlns="http://www.w3.org/2000/svg" xml:space="preserve" width="100%" height="100%" version="1.1" style="shape-rendering:geometricPrecision; text-rendering:geometricPrecision; image-rendering:optimizeQuality; fill-rule:evenodd; clip-rule:evenodd"
viewBox="0 0 4.19324 7.03005"
 xmlns:xlink="http://www.w3.org/1999/xlink">
 <g id="Layer_x0020_1">
  <metadata id="CorelCorpID_0Corel-Layer"/>
  <path class="fil0" d="M1.23081 1.95122c-0.8187,0.44189 -1.17533,1.53534 -0.68161,2.41899 0.12404,0.22201 0.28976,0.41364 0.46604,0.54964 0.09206,0.07102 0.18389,0.12872 0.272,0.17428 0.13832,0.07151 0.1555,0.06862 0.29221,0.12043 0.4136,0.15673 0.96952,0.09122 1.38736,-0.14041 0.32541,-0.18039 0.54984,-0.43503 0.70849,-0.73908 0.04327,-0.08292 0.08856,-0.20193 0.11899,-0.29241 0.00795,-0.02363 0.00896,-0.04152 0.01768,-0.07167l0.04417 -0.23591c0.07405,-0.60566 -0.19165,-1.25261 -0.67916,-1.62534 -0.11384,-0.08704 -0.2211,-0.15568 -0.3431,-0.20949l-0.14597 -0.06055c-0.02783,-0.01022 -0.04847,-0.01452 -0.07474,-0.02568l-0.1471 -0.04056c-0.43741,-0.08304 -0.8139,-0.04966 -1.23526,0.17777zm0.07936 0.20976c-0.70005,0.40142 -1.01006,1.35156 -0.55539,2.13151 0.30625,0.52533 0.88179,0.83015 1.47612,0.78194 0.2183,-0.01771 0.44405,-0.08456 0.6499,-0.20323 0.69924,-0.40311 1.0111,-1.34733 0.56086,-2.12823 -0.41257,-0.71557 -1.33826,-1.03684 -2.13149,-0.58199zm-0.88889 -0.76467c-0.05502,0.05777 -0.00292,0.12644 0.03476,0.2079 0.23917,0.51717 0.17306,0.46422 0.46938,0.32721 0.11457,-0.05298 0.89744,-0.40326 0.93163,-0.43783 0.05233,-0.05293 -0.00282,-0.13299 -0.03592,-0.20457 -0.2414,-0.52203 -0.17188,-0.46884 -0.46834,-0.33176 -0.11426,0.05283 -0.89875,0.40465 -0.93151,0.43905zm-0.39387 -0.87144c-0.05748,0.0544 -0.01229,0.12581 0.024,0.20427 0.24234,0.52387 0.17256,0.47635 0.46668,0.34035 0.10989,-0.05081 0.90231,-0.40892 0.93522,-0.43828 0.05757,-0.05139 0.0047,-0.1276 -0.03008,-0.2028 -0.2417,-0.52261 -0.17302,-0.47298 -0.46292,-0.33894 -0.11589,0.05359 -0.8968,0.40123 -0.9329,0.43541zm2.70964 5.87611c-0.05574,0.05938 -0.00569,0.12404 0.033,0.20771 0.03679,0.07955 0.07357,0.1591 0.11035,0.23865 0.11683,0.25268 0.10952,0.20389 0.35902,0.08852 0.11256,-0.05204 0.89824,-0.40403 0.93134,-0.438 0.0531,-0.05449 0.00005,-0.12734 -0.03558,-0.20439 -0.03678,-0.07955 -0.07357,-0.1591 -0.11035,-0.23865 -0.11708,-0.2532 -0.10594,-0.20869 -0.35765,-0.0923 -0.11628,0.05376 -0.89551,0.40158 -0.93013,0.43845zm-0.394 -0.87156c-0.06112,0.05214 -0.01274,0.12826 0.02239,0.20421 0.0368,0.07954 0.07357,0.1591 0.11035,0.23865 0.11306,0.24451 0.09198,0.22489 0.35669,0.10249 0.11334,-0.05241 0.89956,-0.40706 0.93616,-0.43852 0.05862,-0.0504 0.00305,-0.12894 -0.03139,-0.20337 -0.0368,-0.07954 -0.0736,-0.15909 -0.11038,-0.23864 -0.11721,-0.25348 -0.10434,-0.2151 -0.35255,-0.10033 -0.11072,0.0512 -0.89685,0.40614 -0.93127,0.4355zm1.14503 -0.79554l0.29269 0.63325c0.06108,-0.03372 0.18162,-0.17871 0.19035,-0.22725 0.00716,-0.03984 -0.02324,-0.25778 -0.0313,-0.31169 -0.02869,-0.19174 -0.06687,-0.45781 -0.12235,-0.64726l-0.06396 0.14657c-0.11928,0.24204 -0.13431,0.22124 -0.26543,0.40637zm-1.41948 -3.06983c0.13959,0.01369 0.14325,-0.00142 0.3252,0.0285 0.11115,0.01828 0.14243,0.03248 0.23231,0.05428 0.03031,0.00735 0.05074,0.02376 0.07712,0.02444 -0.10924,-0.16491 -0.28491,-0.36606 -0.41424,-0.51197 -0.0313,-0.03532 -0.1903,-0.21182 -0.21701,-0.22571 -0.03623,-0.01884 -0.23963,-0.02803 -0.29637,-0.00274l0.29298 0.63319zm0.34717 4.33687l-0.29561 -0.64008c-0.06782,0.01418 -0.26158,-0.01125 -0.32216,-0.0232 -0.05743,-0.01133 -0.18201,-0.03574 -0.23165,-0.05581 -0.03372,-0.01363 -0.04538,-0.02059 -0.07849,-0.02286 0.08115,0.11818 0.50989,0.65294 0.6276,0.7337 0.05026,0.03448 0.22194,0.02555 0.3003,0.00825zm-2.04279 -3.15308c0.00138,-0.00187 0.10039,-0.21826 0.13902,-0.28204 0.03761,-0.06209 0.13323,-0.21729 0.19302,-0.26581l-0.29599 -0.63965c-0.06415,0.04976 -0.17535,0.17378 -0.18726,0.22861 -0.02301,0.10597 0.12109,0.84769 0.15121,0.95887zm1.58828 0.47469c-0.25988,0.18973 0.02694,0.56837 0.27561,0.3816 0.24828,-0.18649 -0.02972,-0.56111 -0.27561,-0.3816zm-0.16433 0.1908c-0.0057,-0.07523 0.01943,-0.09144 0.03398,-0.14841 -0.05899,-0.0273 -0.16289,-0.04549 -0.22559,-0.06682l-0.58089 -0.16635c-0.04518,-0.01214 -0.09835,0.0092 -0.11117,0.05595 -0.02775,0.10118 0.12059,0.11094 0.18035,0.1314l0.2333 0.06718c0.07746,0.01748 0.42088,0.12441 0.47001,0.12705zm-1.37586 -2.20048l1.0862 -0.50087 -0.05022 -0.10161 -1.09165 0.50349 0.00858 -0.00269 0.04709 0.10168zm2.3144 5.00546l1.0826 -0.49931 -0.04662 -0.10316 -1.08439 0.50003 0.04841 0.10244zm-0.5943 -3.10563c0.17744,0.06725 0.09081,0.02946 0.19172,0.11377 0.01448,0.0121 0.00769,0.00659 0.01476,0.01016l0.15576 -0.26674c0.03979,-0.06948 0.15589,-0.20746 0.03046,-0.28791 -0.14277,-0.09156 -0.21976,0.12408 -0.31662,0.29057 -0.01341,0.02304 -0.02426,0.04214 -0.0406,0.06911 -0.01461,0.02413 -0.02856,0.04108 -0.03547,0.07103zm-0.11146 0.23336c-0.09111,0.0948 0.04463,0.22533 0.1358,0.13567 0.08339,-0.08202 -0.04637,-0.22871 -0.1358,-0.13567zm0.20402 -1.36828c-0.06937,0.00712 -0.05849,0.03243 -0.06824,0.15358 -0.00306,0.038 -0.03005,0.16175 0.02002,0.17555 0.06287,0.01733 0.05685,-0.1057 0.0605,-0.14619 0.00508,-0.05632 0.02659,-0.135 -0.01227,-0.18294zm0.76656 2.08598c-0.02275,0.03482 0.01728,0.05835 0.04186,0.07558 0.02803,0.01966 0.04788,0.0336 0.07617,0.05407 0.05459,0.0395 0.11979,0.10424 0.1525,0.05536 0.03116,-0.04656 -0.07936,-0.10473 -0.11337,-0.1285 -0.03846,-0.02687 -0.12223,-0.10999 -0.15717,-0.05651zm0.21083 -0.56614c-0.05432,0.07863 0.07165,0.07074 0.11731,0.07595 0.03647,0.00417 0.16242,0.0272 0.18587,-0.00334 0.05527,-0.07198 -0.09941,-0.07189 -0.12759,-0.0742 -0.03657,-0.003 -0.1567,-0.02575 -0.17559,0.0016zm-2.29972 -0.90967c0.0142,0.06314 0.08708,0.09628 0.1327,0.12856 0.05881,0.04162 0.10224,0.09922 0.15676,0.04527 -0.0114,-0.05672 -0.08353,-0.09455 -0.12729,-0.12476 -0.04238,-0.02926 -0.1217,-0.11241 -0.16216,-0.04907zm1.95208 -0.33986c-0.0201,0.02088 -0.15006,0.19969 -0.14897,0.22918 0.00132,0.03549 0.03815,0.05052 0.06698,0.02499 0.00922,-0.00817 0.15179,-0.20398 0.15181,-0.22749 0.00004,-0.03976 -0.0418,-0.05578 -0.06982,-0.02667zm-0.90507 2.60398c0.07382,-0.00778 0.0587,-0.03561 0.06812,-0.14289 0.00472,-0.05378 0.02446,-0.14304 -0.01274,-0.18861 -0.07673,0.00956 -0.05998,0.09041 -0.06585,0.14795 -0.00561,0.05499 -0.02649,0.13513 0.01047,0.18356zm-0.55473 -0.51194c-0.03182,0.04095 -0.15267,0.18961 -0.14241,0.22615 0.01277,0.04546 0.05705,0.03178 0.07902,0.00537 0.01618,-0.01944 0.03417,-0.05113 0.04919,-0.07237 0.01763,-0.02493 0.03617,-0.05293 0.05324,-0.07648 0.08451,-0.11668 -0.00385,-0.12794 -0.03904,-0.08267zm-0.59709 -0.36919c-0.02022,0.02141 -0.01492,0.05627 0.01553,0.06632 0.02974,0.00983 0.25996,-0.10825 0.26709,-0.11657 0.01777,-0.02073 0.01035,-0.05455 -0.01943,-0.06398 -0.0298,-0.00943 -0.26083,0.11172 -0.2632,0.11422zm1.90436 0.6778l-0.08363 -0.18078c-0.026,-0.05624 -0.07572,-0.06614 -0.08524,-0.01365 -0.00532,0.02935 0.03839,0.10218 0.05305,0.13387 0.01411,0.03051 0.04495,0.11417 0.06608,0.13119 0.03434,0.02765 0.08243,0.00007 0.04974,-0.07062zm0.40896 -1.66906c0.05254,-0.0115 0.12514,-0.0508 0.17988,-0.07589 0.02314,-0.01061 0.07343,-0.02874 0.08792,-0.04707 0.01657,-0.02096 0.00457,-0.05828 -0.02445,-0.06316 -0.02698,-0.00454 -0.14275,0.05827 -0.17685,0.07391 -0.07277,0.03337 -0.13044,0.04542 -0.0665,0.11222zm-1.63164 -0.78527l0.07022 0.15187c0.01537,0.03324 0.02639,0.06863 0.06395,0.05807 0.04782,-0.01345 0.02668,-0.0519 0.01172,-0.08428 -0.05004,-0.10822 -0.09017,-0.25129 -0.14857,-0.21186 -0.03178,0.02145 -0.01257,0.05322 0.00269,0.0862zm-0.80972 1.06347c-0.05827,0.07302 0.10294,0.0728 0.12722,0.0748 0.03467,0.00286 0.15917,0.02612 0.18069,-0.00218 0.02242,-0.02948 0.001,-0.05641 -0.03022,-0.06392 -0.02161,-0.0052 -0.25697,-0.03467 -0.2777,-0.0087z"/>
 </g>
</svg>
